<svg width="73" height="73" viewBox="0 0 73 73" fill="none" xmlns="http://www.w3.org/2000/svg">
<path d="M28.1683 54.7814H45.1184H28.1683ZM36.6452 4V7.62724V4ZM59.7289 13.5614L57.1645 16.1259L59.7289 13.5614ZM69.2903 36.6452H65.6631H69.2903ZM7.62724 36.6452H4H7.62724ZM16.1259 16.1259L13.5614 13.5614L16.1259 16.1259ZM23.8192 49.4711C21.2833 46.9345 19.5565 43.7029 18.8571 40.185C18.1577 36.667 18.5171 33.0207 19.89 29.707C21.2628 26.3933 23.5873 23.5611 26.5697 21.5685C29.5521 19.5759 33.0584 18.5123 36.6452 18.5123C40.232 18.5123 43.7382 19.5759 46.7206 21.5685C49.703 23.5611 52.0275 26.3933 53.4004 29.707C54.7732 33.0207 55.1326 36.667 54.4332 40.185C53.7338 43.7029 52.007 46.9345 49.4711 49.4711L47.4834 51.4552C46.347 52.5918 45.4456 53.9411 44.8307 55.426C44.2158 56.911 43.8994 58.5025 43.8996 60.1098V62.0358C43.8996 63.9599 43.1353 65.8051 41.7749 67.1655C40.4144 68.526 38.5692 69.2903 36.6452 69.2903C34.7212 69.2903 32.8759 68.526 31.5155 67.1655C30.155 65.8051 29.3907 63.9599 29.3907 62.0358V60.1098C29.3907 56.8634 28.0994 53.7476 25.807 51.4552L23.8192 49.4711Z" stroke="#EC7979" stroke-width="6.83333" stroke-linecap="round" stroke-linejoin="round"/>
</svg>
